<svg xmlns="http://www.w3.org/2000/svg" viewBox="0 0 81.87 68.05"><path fill="#dd6b20" d="M31.43 14.67C19.48 24.89 11.4 57.38 11.4 57.38s37.29-15.62 51.78-29.1C71.45 20.58 81.87 0 81.87 0S44.74 3.29 31.43 14.67z"/><path fill="#dd6b20" d="M13 52.23L0 65.27l2.36 2.78 12.79-13.64z"/><path fill="#f9f9f9" d="M33.36 16.15c-10.27 8.8-17.75 36.5-17.75 36.5S47.94 38.77 60.7 27.13C68.07 20.4 77.77 2.48 77.77 2.48s-32.65 3.59-44.4 13.67z"/><path fill="#dd6b20" d="M12.9 54.67l1.8-.05s15.66-20.47 25.52-28.6C51.7 16.56 78.55 3.19 78.55 3.19l-.78-.7S51.95 14.72 40.93 23.61C30.08 32.37 12.9 54.67 12.9 54.67z"/><path fill="#dd6b20" d="M40.09 24.47c-1.3-2.97-1-12.81-1-12.81l1.26-.78s-.52 8.16 1.34 12.5c.13.3-.68.74-.68.74s-.79.66-.92.35zM28.19 36.4c-1.29-3.15-.98-13.6-.98-13.6l1.25-.83s-.52 8.67 1.34 13.28c.13.31-.68.78-.68.78s-.79.7-.92.37zm24.24-20.04c-1.34-2.32-1.17-10-1.17-10l1.25-.61s-.42 6.37 1.5 9.76c.14.23-.67.57-.67.57s-.77.52-.91.28zm11.9-6.33c-1.29-1.34-.98-5.77-.98-5.77l1.25-.35s-.52 3.68 1.34 5.63c.13.13-.68.33-.68.33s-.79.3-.92.16z"/><path fill="#dd6b20" d="M39.97 41.53c-5.55.26-11.77-4.7-11.77-4.7L29.58 35s6.16 5.86 12.8 4.82c-.26.43-2.07 1.76-2.41 1.72zm15.81-9.61c-5.54.2-15.4-6.75-15.4-6.75l1.38-1.43S50.84 31 57.56 30c-.24.34-1.44 1.94-1.78 1.9zm11.92-10.3c-5.61.88-14.77-4.3-14.77-4.3l1.38-1.43s7.38 5.04 14.1 4.04c-.25.33-.37 1.73-.71 1.7zm6.81-9.44c-5.74.84-10.9-2.2-10.9-2.2l1.58-1.01s3.01 2.78 9.74 1.78c-.25.34-.08 1.47-.42 1.43z"/></svg>