<svg xmlns="http://www.w3.org/2000/svg" width="150" height="50"><path fill="#59c7ec" d="M18.3 41.08l.05.05-1.7.01-.06-.05q-3.24.14-4.19-1.99l-.02-.02q1.18-1.03 2.63-2.13l-.15-.15.04.04q.64 2.24 3.5 2.09l-.07-.07-.03-.03q.86.02 1.88-.21l.04.04-.05-.06q.93-.5.86-1.46l.07.08-.02-.03q-.09-1.11-1.88-1.8l-.09-.09-3.7-1.41-.07-.07q-2.3-1.31-2.64-4.85l.08.07h-.01q-.29-2.23 1.88-2.8l-.03-.03.08.07q.87-.31 3.84-.31l.06.07.06.06q4.85-.03 5.76 2.48l-.07-.07.01.02q-.56.61-1.29 1.07l-.16-.16-1.37.98.01.01q-.35-1.75-3.58-1.98l-.01-.01-.17-.17q-.56.05-1.59.47l.17.17-.06-.06q-.58.33-.58 1.43l-.05-.04-.05-.05q.51 1.23 2.34 1.91l-.07-.07-.03-.03q1.05.37 3.71 1.47l.08.08-.06-.06q1.76.77 1.95 3.32l-.02-.02.17.17q-.02.55-.09 1.54l.03.04.06.05q-.16.76-.73 1.41l.04.04.04.04q-1.58 1.12-4.62 1.12zm4.77 2.6l.02.01.04.04q.97.1 2.34-.2l.01.01-.14-.15q1.06-.68.87-1.9l.13.13-.15-.15q.07-.42-.23-2.02l-.05-.05q-.59-2.99-2.38-4.21l.01.01.04.04q-.44-1.31-1.7-2.04l-.02-.02-.02-.02q-1.36-.53-3.84-1.48l.09.09.06.06q.15-.46.41-.58l-.18-.18.19.19q.59-.47 1.24-.51l-.13-.13.09.09q.76-.07 1.53.19h-.01l.01.08h.12l.25.07-.09-.05-.03-.03q1.19.58 1.38 1.83l-.01-.01-.08-.08q1.27-.82 3.17-2.5l.04.04-.05-.05q-.13-.59-1.12-1.77l-.03-.02-.1-.11q-1.09-2.65-6.2-2.77l.1.1-.02-.02q-3.17-.05-5.15.52l.01.01-.08-.08q-1.45.53-1.22 2.62l.12.12.06.06q-.05 1.1.87 3.19l.04.05.09.09q.56 1.13 1.59 1.85l-.14-.13-.04-.05q.82 1.62 2.11 2.31v-.01h-.01q.84.15 1.79.53l.02.02 1.92.78.05.05q-.35 1.1-2.29.98l.05.05.02.02q-.46.04-1.68-.27l-.01-.02-.13-.27.02.24-.09-.09q-.9-.39-1.54-1.88l.11.11-.14-.13q-2.12 1.57-3.22 2.71l-.04-.03.08.07q.27.88 1.29 1.68v-.01l-.19.12.1.1q1.44 2.12 5.66 2.5l-.02-.02-.01-.02q1.25.11 4.48.34z"/><path d="M3 23c77-7 68 14 137 9" stroke="#3fdeb6" fill="none"/><path fill="#6adcdc" d="M103.62 41.35l-.06-.06.13.13q-3.04.01-4.29-.52l.06.06-.02-.02q-1.92-.78-1.84-3.25l-.04-.04.07.07q.22-3.32.22-2.75l-.04-.04-.11-.11q.11-5.22-2.74-10.05l.03.03-.16-.16q2 .98 3.98 1.36l.08.07-.08-.08q1.74 4.64 1.63 9.13l.08.08-.1-.09q-.13 1.5.71 2.72l-.01-.01.12.12q.81 1.23 2.33 1.04l.08.08.24-.25.15.15q1.34-.08 2.16-.84l-.08-.08-.06-.06q.87-.7.87-1.66l-.05-.05-.01-.01q.08-.15.04-.34l.01.01-.05-.05q-.12-5.29 1.02-9.63l.14.13-.13-.13q1.19.09 2.18-.14l-.15-.15 2.18-.33-.18-.18q-2.43 5.15-2.12 10.7l.02.03-.07-.07q.14 3.03-1.57 4.18l.05.04.03.03q-1.23.95-4.54 1.1zm2.44 2.52l-.18-.18.17.17q3.29-.03 5.11-.79l.05.04v.01q.86-.82.86-2.23v.01l.02.01q.06-.85-.2-2.41l.01.01-.03-.03q-.47-3.13-.09-6.14l.14.14-.04-.04q.24-3.3 1.65-6.04l.11.11v.01q-.72.22-2.06.64l.13.13-.13-.14q.19-.64.5-1.21l.04.04.6-1.11-.03-.03q-1.99.6-5.15 1.09l.04.04-.04-.04q-1.18 4.84-1.03 9.94l.09.09-.04-.04q.03 2.04-2.64 2.53l.14.14-.35.11-.27-.11-.85-.06-.12-.12q.04-.76.07-1.26l-.08-.08-.05-.05q.29-4.43-.4-8.85l-.05-.05-.93-.02q-.59-.1-1.13-.21l-.03-.04.04.05q-.4-1.43-.66-2.19l-.06-.06-.06-.05q-2.68-.33-4.93-1.62l.06.06-.03-.04q2.07 3.45 2.8 6.84L97 30.8l.12.13q.42 2.13.27 5.64l.03.03-.06-.07q.13.25.05 1.35l-.01-.01-.11-.11q-.09 2.43 1.28 3.38l-.05-.06.02.03q.34 2.2 7.35 2.58z"/><path fill="#7878e2" d="M74.86 41l.18.18-.02-.02q3.03-4.39 9.73-12.31l-.03-.03.08.08q-5.84.29-9.61-1.08l.02.02-.07-.07q-.59-1.35-1.35-2.76l-.09-.09.04.04q4.14 1.56 8.6 1.6l-.11-.12.01.02q4.52.1 8.7-.97l-.11-.11-.02-.02q-.34.72-.61 1.25l-.06-.06.14.15q-2.53 2.22-5.35 5.84l-.05-.05-4.94 6.17.05.06q2.16-.29 4.4-.21l.12.11-.09-.08q2.31.17 4.56.55h-.01.01q.01.47.73 2.49l.13.13h.01q-3.78-.88-7.77-.76l-.02-.02-.02-.01q-4 .06-7.66 1.24l-.04-.04.03.03q.08-.14.54-1.09zm-.96 1.86l-.04-.03-.04-.05q.89-.21 2.49-.63l-.03-.03q-.24.22-.66.64h.01v.01q-.3.5-.9 1.64l-.04-.04.11.12q4.7-1.35 9.69-1.2l-.07-.08.07.07q4.86.07 9.43 1.94l.09.09.03.03q-1.51-1.93-2.42-3.98l-.03-.03-.04-.04q-.71-.26-1.78-.49l.08.08q-.29-.83-.67-2.27l-.05-.05.15.15q-1.66-.44-5.23-.55l.07.08-.05-.06q2.46-3.24 7.49-9.6l-.07-.07.08.08q.17-.82.85-2.16l.01.02-2.23.81-.02-.02q-.03-.18.12-.3l-.01-.01.29-.09.01.01q.53-.99 1.1-1.94l-.12-.13.05.05q-4.65 1.37-9.37 1.29l-.1-.1.1.1q-4.77-.04-9.26-1.87l-.08-.08.07.07q1.05 1.74 1.85 3.79l.1.1.02.02q.81.28 1.88.54v.01l-.03-.03q.22.72.53 2.16l.06.07-.15-.16q1.78.45 5.09.6l-.11-.1.06.05q-2.43 3.29-7.6 9.72l-.05-.05q-.14.7-.71 1.92z"/><path fill="#e44848" d="M43.91 41.32l-.12-.12-2.95-.1.09.09q-2.57-.29-3.37-.4l.04.05.02.01q-1.89-.41-3.07-1.28l.08.08.07.07q-1.35-1.46-1.58-4.81l-.02-.02.1.1q-.06-.52-.13-1.74l-.12-.12.14.15q-.04-.46-.12-1.57l-.03-.02-.02-.03q0-.8.04-1.52l-.06-.06-.07-.06q.28-1.86 1.31-2.62l.01.01.09.09q1.85-1.24 6.68-1.47l.09.09-.12-.12q2.11-.02 2.91-.02l-.05-.05-.03-.03q1.45-.03 2.82.27l-.01-.01.04.04q-.52 1.31-1.05 3.14l-.11-.11.17.17q-.52.05-1.02.01l-.16-.16.18.18q-.21-.14-.75-.26l.11.11-.96-.24-.15-.15q-.92-.12-1.53-.08l-.18-.18.04.04q-4.58.22-5.19 3.03l-.03-.03.05.05q-.45.96-.37 1.91l.13.14-.14-.14q.26 2.7 1.5 3.78l.05.05-.12-.12q1.34 1.19 3.93 1.23l-.01-.01-.06-.06q1.48.04 2.21-.27l-.07-.06 1.14-.38-.08-.08q.52-.25 1.09-.33l.09.09-.02-.02q.22 1.78.6 3.07l.04.05.05.05q-.41.2-2.2.54zM47 44.1l.09.09.02.02q.4.06 1.23.13l.03.03.02.02q.52-.09.86-.66l.02.02.1.09Q48.1 41.7 47.6 39.6l.04.04-.13-.13q-.18.13-.64.13l-.02-.02-.1-.11q-.47-.05-.85.14l.06.06-.06-.06q-.21-1.12-.37-2.53l-.02-.02-.08-.09q-.51.02-1.73.6l.02.02q-1.2.58-1.7.58L42 38.2l-.12-.12q-.47.01-1.08-.02l.12.11-.04-.03q-.83.04-2.81-.53l-.07-.07-.05-.05q-.34-.72-.3-1.86l.08.08-.15-.15q.39-4.03 5.34-4.56l-.02-.02-.02-.02q.66-.03 2.03.32l-.05-.05-.05-.05q1.47.44 2.19.4l-.07-.07.07.07q.47-2.19 1.16-4.02l-.13-.13.02.02q-.39-.12-.77-.2l-.02-.02-.61.08-.08-.09q.26-.41.64-1.29l-.05-.05.03.03q-1.63-.46-3.19-.46l.08.09-.09-.09q-2.37.03-6.75.41h.01l-.04-.04q-1.84.26-3.4 1.25l-.01-.01.01.01q-1.26.91-1.26 2.81l.03.03.01.01q.02.44.14 1.66l-.08-.08-.07-.06q.1 1.04.06 1.65l-.05-.04.2.19q-.02 1.85.71 5.58l-.1-.1.01.02q.45.9.94 1.4l-.04-.04.17.17.15.11-.02-.02q1.02 2.13 4.95 2.73h-.01l-.04-.04q3.18.52 5.85.78l-.07-.06.07.07q.88.15 1.8.42z"/><path d="M9 19c49 8 55-15 130 29" stroke="#e6b788" fill="none"/><path fill="#de3f3f" d="M62.92 32.12l-9.21-9.96-.05-.06q.96 3.82.96 7.55l-.16-.16.05.05q-.02 5.95-2.08 11.51l.07.07-.06-.06q-.96.38-3.2 1.14l-.15-.15.07.07q2.87-5.73 2.87-12.43l.03.02-.17-.16q.1-8.55-4.39-15.97l-.1-.1.12.12q.34.07 1.02.49l.11.11-.09-.09q12.19 11.31 20.03 20.56l-.08-.08.14.14q-.42-2.55-.42-4.98l.1.1v-.01q-.16-7.39 2.35-13.59l.12.11.05.05q2.21-.64 3.81-1.33l.03.04h.01q-3.34 6.15-3.64 13.3l-.05-.05.08.08q-.28 7.37 2.69 13.54l-.15-.15.15.15q-.67-.17-1.08-.36l.12.13-.17-.17q-4.38-3.78-9.6-9.33l-.14-.14zM76.3 45.09l-.01-.01.03.02q.39.09.81.28l.08.08.87.37h-.01q-5.24-7.03-5.24-16.39l.08.07.09.1q-.12-7.36 3.2-13.6l.04.04-.08-.07q-.66.21-2.06.82l.01.02.14.14q.38-.84 1.22-2.4l-.07-.06-.09-.1q-2.43.93-4.86 1.5l.04.04-.08-.08q-2.57 6.52-2.57 13.95l.03.03.04.04q.03 1.9.22 3.88l.01.01-.15-.16q-4.55-5.57-9.31-10.18l-.09-.09-10.11-9.73-.01-.01q-.47-.21-1.69-.78l.05.05-.14-.14Q51.7 20.6 51.7 29.7l-.03-.03.07.07q-.07 7.05-3.15 13.07l-.1-.1.04.04q.41-.01 2.05-.62l-.09-.09.09.09q-.32.78-1.16 2.26l-.11-.1.1.1q1.21-.66 4.68-1.45l.17.16h-.01q2.31-6.15 2.31-13.34l-.17-.17.06.06q.04-2.06-.19-4.19l-.05-.05.13.13q11.38 12.72 19.98 19.57z"/><path fill="#5c7ddf" d="M125.6 40.26l-.09-.09.08.08q-1.93-.14-3.61.43l-.03-.03-.06-.06q.68-3.47.8-6.59l-.15-.14.09.09q.12-3.05-.11-6.7l.04.04.06.05q-1.51-.47-2.27-.85l.04.04-.43-3.05-.01-.02q.85.74 2.45 1.31l-.17-.17.14.14q-.3-2.21-.72-4.95l.06.06.03.03q2.26.66 3.9.51l-.1-.09.04 4.76-.15-.16q1.52.04 2.85-.46l.01.01-.05-.05q-.12.84-.34 2.59l.14.15-.03-.04q-1.63.24-2.66.24l.1.09h-.01q-.07 2.1-.07 6.37l.03.02q.04 4.19.11 6.36zm3.06-16.43l-.09-.09.14.15-.89.32-.14-.14.49-2.66-.02-.03q-.85.26-2.25.49l-.04-.04-.01-.01q.16-.52.31-1.89l-.14-.15.17.17q-.71-.02-1.28-.02l-.05-.05.15.15q-2.18-.05-3.82-.77l-.05-.05q.5 2.48.77 4.95l.01.01-.06-.06q-.82-.29-2.35-1.31l-.01-.02h-.01q.33 1.27.56 3.98l.1.1-.01-.01q.47.24 1.65.66l-.03-.03.03.03q-.09.52-.05 1.92l.02.03.46.11.01-.06.03.03q.06 1.24.06 2.42l.03.03-.05-.05q-.03 4.92-.83 9.26l.04.04.11.11q.09-.21 2.04-.75l.07.07-.12-.11q-.01.64-.12 2.01l.13.13q.73-.14 1.53-.14l-.01-.02.01.01q1.65-.06 3.28.51l.04.04.04.03q-1.39-5.76-1.2-13.68l.06.06 2.35-.43-.03-.03q.21-.78.28-1.81l-.09-.09.23-1.98.04.04q-.54.3-1.72.75l.03.03-.14-.14q.31-1.32.24-1.66l.01.01.1.1q-.01-.2.07-.39z"/></svg>